# xmcd
#
# Track frame offsets:
#	150
#	22683
#	48939
#	80679
#	97493
#	120207
#	137703
#	164820
#	184623
#	212649
#	236205
#
# Disc length: 3352 seconds
#
# Revision: 0
# Processed by: cddbd v1.4PL0 Copyright (c) Steve Scherf et al.
# Submitted via: dBpowerAMP V4.0
#
DISCID=940d160b
DTITLE=Lonie Walker - Live In Paris
DYEAR=1998
DGENRE=Blues
TTITLE0=Some Of These Days
TTITLE1=Nobody Knows When You're Down And Out
TTITLE2=Miss Celies Blues (Sister)
TTITLE3=Love The Life I Live
TTITLE4=Help Me Make It Through The Night
TTITLE5=Ain't Misbehavin'
TTITLE6=I Can't Stop Loving You
TTITLE7=When I'm 64
TTITLE8=Home Again
TTITLE9=In My Life
TTITLE10=Once In Awhile
EXTD=
EXTT0=
EXTT1=
EXTT2=
EXTT3=
EXTT4=
EXTT5=
EXTT6=
EXTT7=
EXTT8=
EXTT9=
EXTT10=
PLAYORDER=
